<svg xmlns="http://www.w3.org/2000/svg" xmlns:xlink="http://www.w3.org/1999/xlink" height="800px" width="800px" version="1.1" id="Layer_1" viewBox="0 0 512 512" xml:space="preserve">
  <path style="fill:#574020;" d="M53.966,405.224c-7.133,0-13.047-5.585-13.348-12.77c-0.143-3.425-0.199-55.659-0.199-56.173  c0-118.872,96.709-215.582,215.582-215.582c48.738,0,96.505,16.725,134.5,47.094c37.408,29.899,64.108,71.873,75.179,118.191  c1.717,7.185-2.714,14.4-9.897,16.118c-7.173,1.713-14.402-2.714-16.118-9.898c-20.376-85.231-95.9-144.757-183.665-144.757  c-104.123,0-188.833,84.71-188.833,188.833c0,5.751,0.076,51.956,0.177,55.095c0.237,7.357-5.516,13.567-12.872,13.839  C54.304,405.222,54.134,405.224,53.966,405.224z"/>
  <path style="fill:#bc8c4c;" d="M256.001,134.073c13.851,0,27.374,1.396,40.442,4.048c3.801-6.733,5.98-14.502,5.98-22.783  c0-25.638-20.784-46.421-46.421-46.421c-25.638,0-46.421,20.784-46.421,46.421c0,8.283,2.179,16.052,5.98,22.783  C228.626,135.469,242.15,134.073,256.001,134.073z"/>
  <path style="fill:#574020;" d="M296.444,151.497c-0.881,0-1.773-0.087-2.663-0.267c-24.72-5.018-50.844-5.018-75.562,0  c-5.677,1.153-11.457-1.483-14.307-6.532c-5.044-8.931-7.708-19.084-7.708-29.358c0-32.972,26.824-59.796,59.796-59.796  c32.971,0,59.796,26.824,59.796,59.796c0,10.277-2.666,20.43-7.71,29.361C305.683,148.955,301.198,151.497,296.444,151.497z   M256.001,120.699c10.758,0,21.524,0.8,32.125,2.383c0.61-2.526,0.921-5.128,0.921-7.745c0-18.223-14.824-33.047-33.047-33.047  s-33.047,14.824-33.047,33.047c0,2.616,0.312,5.217,0.921,7.745C234.477,121.498,245.241,120.699,256.001,120.699z"/>
  <path style="fill:#bc8c4c;" d="M468.498,443.082H43.502c-16.57,0-30.127-13.558-30.127-30.127l0,0  c0-16.57,13.558-30.127,30.127-30.127h424.996c16.57,0,30.127,13.558,30.127,30.127l0,0  C498.626,429.524,485.069,443.082,468.498,443.082z"/>
  <path style="fill:#574020;" d="M468.498,456.457H43.502C19.515,456.457,0,436.942,0,412.955c0-23.987,19.515-43.502,43.502-43.502  H468.5c23.987,0,43.5,19.515,43.5,43.5C512,436.939,492.485,456.457,468.498,456.457z M43.502,396.203  c-9.238,0-16.753,7.515-16.753,16.751c0,9.236,7.515,16.753,16.753,16.753H468.5c9.236,0,16.751-7.515,16.751-16.751  c0-9.236-7.515-16.753-16.751-16.753H43.502z"/>
  </svg>